<?xml version="1.0"?>
<svg xmlns="http://www.w3.org/2000/svg" xmlns:xlink="http://www.w3.org/1999/xlink" version="1.1" viewBox="0 0 192 192" width="24px" height="24px"><g transform="translate(4.992,4.992) scale(0.948,0.948)"><g fill="none" fill-rule="nonzero" stroke="none" stroke-width="none" stroke-linecap="butt" stroke-linejoin="none" stroke-miterlimit="10" stroke-dasharray="" stroke-dashoffset="0" font-family="none" font-weight="none" font-size="none" text-anchor="none" style="mix-blend-mode: normal"><g fill="#000000" stroke="#ffffff" stroke-width="10" stroke-linejoin="round"><path d="M173.65625,53.65625l-101.65625,101.65625l-45.65625,-45.65625l11.3125,-11.3125l34.34375,34.34375l90.34375,-90.34375z"/></g><path d="M0,192v-192h192v192z" fill="none" stroke="none" stroke-width="1" stroke-linejoin="miter"/><g fill="#ffffff" stroke="none" stroke-width="1" stroke-linejoin="miter"><path d="M162.34375,42.34375l-90.34375,90.34375l-34.34375,-34.34375l-11.3125,11.3125l45.65625,45.65625l101.65625,-101.65625z"/></g><path d="" fill="none" stroke="none" stroke-width="1" stroke-linejoin="miter"/><path d="M96,192c-53.01934,0 -96,-42.98066 -96,-96v0c0,-53.01934 42.98066,-96 96,-96h0c53.01934,0 96,42.98066 96,96v0c0,53.01934 -42.98066,96 -96,96z" fill="none" stroke="none" stroke-width="1" stroke-linejoin="miter"/><path d="M96,188.16c-50.89856,0 -92.16,-41.26144 -92.16,-92.16v0c0,-50.89856 41.26144,-92.16 92.16,-92.16h0c50.89856,0 92.16,41.26144 92.16,92.16v0c0,50.89856 -41.26144,92.16 -92.16,92.16z" fill="none" stroke="none" stroke-width="1" stroke-linejoin="miter"/><path d="M0,192v-192h192v192z" fill="none" stroke="none" stroke-width="1" stroke-linejoin="miter"/><path d="M3.84,188.16v-184.32h184.32v184.32z" fill="none" stroke="none" stroke-width="1" stroke-linejoin="miter"/><path d="" fill="none" stroke="none" stroke-width="1" stroke-linejoin="miter"/></g></g></svg>
